# xmcd
#
# Track frame offsets: 
#        150
#        16878
#        35689
#        52378
#        68016
#        80955
#        93238
#        118052
#        140862
#        155546
#        173420
#        186676
#
# Disc length: 2678 seconds
#
# Revision: 2
# Processed by: cddbd v1.5.2PL0 Copyright (c) Steve Scherf et al.
# Submitted via: ExactAudioCopy v0.95b4
#
DISCID=b00a740c
DTITLE=Bob Corritore - Taboo: Blues Harmonica Instrumentals
DYEAR=2014
DGENRE=Blues
TTITLE0=Potato Stomp
TTITLE1=Many a Devil's Night
TTITLE2=Ruckus Rhythm
TTITLE3=Harmonica Watusi
TTITLE4=Taboo
TTITLE5=Harp Blast
TTITLE6=Mr. Tate's Advice
TTITLE7=5th Position Plea
TTITLE8=Fabuloco (For Kid)
TTITLE9=Shuff Stuff
TTITLE10=T-Town Ramble
TTITLE11=Bob's Late Hours
EXTD=
EXTT0=
EXTT1=
EXTT2=
EXTT3=
EXTT4=
EXTT5=
EXTT6=
EXTT7=
EXTT8=
EXTT9=
EXTT10=
EXTT11=
PLAYORDER=
